<?xml version="1.0" standalone="no"?>
<!DOCTYPE svg PUBLIC "-//W3C//DTD SVG 20010904//EN"
 "http://www.w3.org/TR/2001/REC-SVG-20010904/DTD/svg10.dtd">
<svg version="1.0" xmlns="http://www.w3.org/2000/svg"
 width="1280.000000pt" height="640.000000pt" viewBox="0 0 1280.000000 640.000000"
 preserveAspectRatio="xMidYMid meet">
<metadata>
Created by potrace 1.15, written by Peter Selinger 2001-2017
</metadata>
<g transform="translate(0.000000,640.000000) scale(0.100000,-0.100000)"
fill="#000000" stroke="none">
<path d="M8020 5820 c-91 -4 -214 -13 -275 -19 -172 -18 -537 -61 -570 -67
-98 -18 -489 -120 -595 -154 -69 -22 -151 -47 -183 -56 l-59 -15 -51 35 c-75
50 -138 68 -452 125 -576 105 -840 121 -1285 76 -227 -23 -388 -54 -806 -155
-137 -33 -343 -83 -459 -110 -500 -120 -896 -249 -1085 -354 -295 -164 -390
-228 -510 -343 -158 -152 -285 -338 -359 -528 -53 -135 -109 -321 -122 -408
-6 -40 -16 -82 -23 -94 -6 -13 -57 -69 -112 -125 -118 -121 -127 -140 -150
-327 -20 -165 -44 -216 -128 -276 -71 -51 -258 -224 -331 -306 -70 -78 -103
-148 -117 -247 -11 -72 -10 -95 5 -169 26 -127 49 -164 171 -291 129 -133 133
-117 -47 -174 -144 -46 -153 -51 -172 -88 -23 -45 -19 -75 16 -104 37 -32 97
-34 253 -11 156 23 166 24 166 16 0 -14 -131 -59 -218 -75 -44 -8 -114 -15
-154 -15 -123 1 -169 -20 -252 -112 -108 -120 -137 -246 -102 -442 19 -103 39
-137 81 -137 39 0 149 48 191 84 81 68 632 375 720 400 21 6 22 3 25 -102 4
-101 7 -113 41 -183 99 -200 364 -367 693 -438 209 -46 755 -73 865 -43 25 7
137 19 250 27 113 9 329 29 480 45 396 43 664 60 931 60 370 1 1362 33 1534
49 55 6 321 10 590 10 317 1 601 6 805 17 267 14 352 15 560 5 316 -16 580
-37 750 -61 74 -10 203 -26 285 -35 83 -8 238 -26 345 -40 386 -48 1034 -89
1181 -75 253 25 555 137 799 297 181 119 258 209 307 361 27 82 28 83 56 78
48 -10 256 -113 320 -160 34 -24 94 -77 132 -116 86 -88 118 -107 151 -90 22
13 29 24 98 170 44 94 195 322 278 418 71 83 152 142 230 167 65 22 78 31 78
59 0 32 -38 63 -90 75 -74 17 -416 26 -482 12 -65 -14 -81 -29 -80 -72 1 -39
-12 -73 -44 -121 -37 -53 -66 -62 -197 -56 -172 8 -217 37 -203 132 12 78 32
91 180 116 148 24 205 45 371 137 180 99 354 231 433 326 120 146 152 310 85
444 -26 53 -40 67 -156 149 -70 50 -139 101 -152 114 -29 27 -32 59 -9 121 53
147 56 393 7 544 -28 88 -144 328 -189 390 -108 153 -276 307 -505 463 -79 54
-180 123 -224 154 -123 85 -646 404 -770 469 -289 151 -889 384 -1185 459
-388 98 -1132 207 -1355 198 -22 -1 -114 -5 -205 -8z m-121 -144 c-2 -2 -101
-29 -219 -60 -409 -105 -524 -146 -860 -303 -135 -64 -331 -155 -437 -204
-105 -48 -250 -120 -322 -158 -72 -39 -133 -71 -137 -71 -3 0 -70 -31 -147
-69 -179 -88 -286 -125 -462 -162 -220 -45 -355 -37 -371 25 -16 65 42 110
346 267 19 10 109 54 200 99 91 44 202 100 247 124 45 24 126 57 180 74 54 17
197 62 318 101 326 104 729 216 898 250 102 21 165 30 477 66 277 32 303 34
289 21z m-3114 -44 c-6 -5 -57 -24 -115 -43 -58 -18 -159 -61 -225 -95 -118
-59 -381 -228 -563 -362 -116 -85 -834 -518 -882 -532 -161 -46 -239 60 -157
213 58 111 281 315 432 397 33 18 111 62 173 97 150 85 213 113 400 173 178
58 316 88 582 124 263 36 374 45 355 28z m4265 -72 c275 -28 696 -100 746
-128 25 -14 -22 -20 -261 -32 -272 -14 -339 -23 -581 -74 -249 -53 -285 -65
-564 -189 -325 -144 -420 -197 -511 -287 -70 -68 -78 -80 -89 -133 -21 -103
17 -158 132 -192 72 -21 147 -12 413 50 105 24 251 57 326 74 75 16 187 45
250 65 143 44 632 172 753 197 127 27 341 34 606 20 424 -22 496 -36 786 -149
98 -38 202 -77 231 -87 54 -17 417 -258 548 -364 157 -127 324 -301 368 -386
37 -72 116 -254 130 -303 38 -127 30 -356 -16 -455 -29 -63 -120 -164 -185
-205 -63 -41 -187 -81 -297 -98 -122 -19 -645 -18 -930 1 -327 21 -348 24
-496 56 -75 16 -246 44 -380 64 -134 19 -289 43 -344 54 -129 26 -608 86 -835
106 -329 28 -695 51 -1175 75 -282 14 -1462 -14 -1660 -40 -265 -33 -506 -51
-805 -60 -573 -17 -692 -26 -1390 -110 -303 -36 -429 -54 -570 -80 -153 -29
-639 -87 -825 -99 -88 -6 -245 -20 -349 -31 -173 -18 -195 -18 -274 -4 -103
18 -347 98 -457 150 -101 47 -208 150 -250 239 -32 69 -43 164 -26 218 15 45
125 166 139 152 6 -5 18 -46 27 -90 10 -44 31 -122 46 -174 16 -51 29 -104 29
-117 0 -32 34 -50 66 -35 53 24 56 95 15 277 -65 284 -65 347 -6 581 47 185
85 280 153 380 21 32 47 73 56 91 26 50 130 166 214 239 79 67 296 214 438
297 124 72 394 170 689 251 197 54 285 73 285 62 0 -3 -35 -30 -78 -60 -178
-125 -366 -317 -418 -427 -37 -76 -44 -186 -16 -251 43 -98 114 -139 242 -139
98 0 82 -9 730 395 157 98 319 204 362 236 159 122 528 331 665 378 383 131
739 145 1198 47 114 -25 213 -50 218 -55 16 -16 0 -27 -60 -41 -121 -26 -288
-97 -588 -246 -170 -85 -368 -190 -440 -233 -116 -69 -134 -85 -172 -140 -46
-67 -68 -130 -58 -169 14 -56 106 -113 219 -133 74 -14 185 -4 355 33 218 46
267 67 802 337 488 246 917 442 1088 497 105 34 399 118 496 143 103 26 412
60 635 71 218 10 399 5 650 -20z m905 -295 c176 -19 341 -48 425 -76 68 -22
293 -132 286 -140 -2 -2 -114 0 -248 4 -647 21 -715 15 -1198 -119 -107 -30
-330 -88 -495 -130 -165 -41 -379 -95 -475 -121 -189 -49 -240 -52 -289 -16
-37 29 -37 49 1 86 43 43 231 156 365 219 149 70 415 173 498 192 39 8 117 27
175 40 283 65 676 91 955 61z m-1950 -2160 c240 -16 372 -29 382 -39 12 -12
-8 -34 -49 -53 -70 -33 -170 -46 -314 -40 -148 6 -225 23 -339 77 -99 47 -109
55 -100 70 5 9 31 10 94 6 47 -3 194 -13 326 -21z m-574 -9 c115 -83 160 -107
258 -140 130 -43 207 -56 331 -56 215 0 361 36 488 118 l77 50 144 -18 c79
-10 148 -23 153 -28 13 -13 -36 -48 -162 -114 -145 -77 -265 -122 -427 -163
-188 -48 -307 -60 -436 -45 -189 22 -501 136 -648 238 -81 56 -189 149 -189
162 0 12 52 16 226 18 145 2 152 1 185 -22z m-908 -31 c-24 -20 -44 -48 -48
-64 -14 -66 56 -148 135 -158 22 -3 40 -9 40 -13 0 -18 -280 -72 -467 -90
-167 -17 -810 24 -839 53 -11 11 32 61 116 135 82 72 163 122 176 109 3 -3 -1
-27 -10 -53 -26 -76 -21 -115 17 -152 49 -48 87 -60 158 -50 61 8 126 35 148
62 7 8 16 27 19 41 7 26 7 26 40 -19 64 -92 146 -110 257 -58 109 52 149 126
110 201 -23 46 -90 58 -113 21 -7 -11 -22 -20 -33 -20 -12 0 -39 -18 -61 -40
-22 -22 -44 -40 -48 -40 -12 0 -21 31 -14 52 3 10 -2 30 -11 44 -23 35 -54 28
-84 -19 l-24 -37 -25 41 c-13 22 -20 45 -16 49 5 5 38 11 74 14 36 2 88 9 115
14 28 5 136 10 240 10 l190 2 -42 -35z m137 27 c0 -12 -22 -32 -35 -32 -5 0
-16 9 -23 20 -11 19 -10 20 23 20 19 0 35 -4 35 -8z m237 -47 l58 -55 -35 -30
c-42 -36 -149 -90 -180 -90 -32 0 -15 19 39 41 50 22 81 53 81 84 0 11 -9 39
-20 63 -10 23 -15 42 -10 42 5 0 35 -25 67 -55z m-5881 14 c8 -17 22 -77 29
-133 7 -55 23 -126 35 -157 28 -75 90 -170 131 -202 84 -62 240 -117 336 -117
114 0 273 72 382 173 32 29 75 58 97 65 75 24 614 54 614 34 0 -33 -69 -193
-110 -256 -58 -88 -78 -105 -205 -167 -177 -86 -387 -120 -630 -101 -170 13
-241 34 -359 104 -168 100 -274 220 -330 373 -26 72 -29 96 -34 232 -2 84 -2
159 1 168 10 24 25 18 43 -16z m4842 -39 c1 -14 5 -43 8 -65 l6 -40 -21 33
c-23 35 -50 41 -91 17 -38 -22 -41 -18 -23 23 27 59 33 63 77 60 35 -3 41 -6
44 -28z m-528 -14 c0 -42 -335 -258 -476 -307 -143 -49 -460 -84 -633 -69
-125 11 -267 57 -436 139 -130 64 -176 98 -153 112 24 16 48 10 121 -30 127
-69 273 -91 433 -67 130 19 195 44 284 109 39 29 92 65 116 81 l44 29 247 7
c429 12 453 12 453 -4z m7115 -106 c53 -169 50 -254 -15 -352 -54 -81 -148
-136 -282 -164 -56 -13 -107 -15 -223 -10 -220 8 -310 29 -474 113 -203 103
-369 218 -347 240 4 4 97 9 206 11 l200 4 103 -66 c152 -96 184 -109 302 -114
253 -11 385 96 403 328 4 64 9 79 33 102 15 16 34 28 41 28 10 0 28 -42 53
-120z m-5825 74 c0 -14 -4 -22 -10 -19 -5 3 -10 17 -10 31 0 14 4 22 10 19 6
-3 10 -17 10 -31z m2583 -41 c229 -249 265 -277 477 -377 156 -73 366 -133
546 -157 138 -17 430 22 683 92 80 22 84 22 97 5 7 -10 10 -24 8 -31 -6 -15
-248 -84 -399 -114 -350 -70 -757 -2 -1062 176 -196 113 -283 192 -384 341
-46 69 -65 132 -39 132 6 0 38 -30 73 -67z m-4813 24 c-34 -32 -113 -64 -191
-76 -68 -11 -277 1 -307 18 -35 19 108 43 448 75 81 7 77 8 50 -17z m5102 -47
c-3 -48 1 -68 18 -96 11 -20 19 -39 16 -41 -14 -15 -206 159 -206 186 0 7 33
11 88 11 l87 0 -3 -60z m217 14 c47 -10 39 -28 -9 -20 -23 3 -49 2 -60 -4 -15
-8 -20 -8 -20 3 0 28 25 33 89 21z m-658 -91 c75 -111 151 -203 206 -249 61
-51 205 -140 319 -197 146 -73 210 -90 544 -149 45 -8 145 -12 250 -12 154 1
193 5 326 32 280 58 389 106 429 190 11 23 23 41 28 42 4 0 71 -33 150 -74
232 -122 394 -165 633 -168 149 -1 218 11 365 68 163 64 268 208 272 374 1 55
-4 76 -32 138 -19 40 -31 75 -28 78 17 17 146 -99 185 -166 22 -37 27 -57 27
-115 0 -102 -40 -180 -144 -277 -196 -184 -457 -320 -713 -372 -88 -18 -269
-21 -433 -6 -60 5 -294 21 -520 35 -558 34 -780 61 -1076 131 -407 95 -899
154 -1288 154 -181 0 -445 17 -881 55 -96 9 -180 17 -186 19 -24 9 -1194 6
-1694 -3 -502 -9 -543 -11 -670 -34 -364 -67 -608 -109 -740 -127 -80 -11
-176 -29 -215 -40 -70 -20 -285 -63 -380 -75 -27 -4 -104 -17 -170 -31 -133
-27 -448 -68 -655 -85 -152 -13 -650 -7 -925 12 -248 16 -506 6 -765 -31 -274
-39 -364 -45 -417 -31 -91 25 -249 158 -323 272 -80 124 -94 231 -45 351 24
61 40 81 172 208 80 78 150 139 156 137 6 -2 21 -50 33 -108 12 -57 31 -127
42 -156 89 -232 310 -433 564 -511 75 -24 308 -52 421 -52 141 0 313 39 486
111 103 43 116 46 124 24 8 -18 105 -68 177 -89 143 -43 419 -51 561 -18 91
22 257 89 324 130 69 43 269 199 343 267 l69 64 70 -19 c133 -37 193 -41 381
-29 197 12 367 38 487 73 44 13 90 26 103 29 12 3 73 -8 135 -25 247 -65 646
-120 887 -121 352 -2 738 80 905 193 109 73 134 88 182 108 72 30 99 28 195
-18 107 -52 299 -114 413 -134 104 -18 269 -21 382 -5 217 29 649 172 828 274
33 19 63 34 67 35 4 0 31 -35 59 -77z m3193 51 c4 -14 0 -50 -9 -79 -29 -101
-131 -156 -291 -159 -87 -1 -94 1 -167 38 -42 21 -77 43 -77 48 0 14 40 25
145 37 125 16 225 48 306 101 34 22 68 40 74 40 7 0 16 -12 19 -26z m-11000
-14 c67 -38 286 -121 407 -155 133 -37 129 -35 129 -45 0 -16 -83 -58 -145
-75 -72 -18 -187 -7 -265 26 -85 37 -157 129 -189 243 -12 45 -5 45 63 6z
m8871 -10 c296 -46 292 -45 323 -73 31 -28 28 -42 -14 -66 -20 -12 -38 -30
-41 -41 -11 -41 -26 -20 -20 29 4 30 1 53 -6 60 -25 25 -107 4 -107 -28 0 -26
-31 -22 -59 8 l-29 31 -93 -6 c-52 -4 -102 -11 -111 -15 -14 -8 -17 -3 -20 23
-3 31 -6 33 -45 36 -25 2 -43 8 -43 15 0 7 -7 24 -14 40 -13 24 -13 27 2 27 9
0 134 -18 277 -40z m-3105 -32 c-47 -38 -239 -134 -330 -164 -157 -53 -440
-94 -651 -94 -193 0 -503 36 -695 80 -141 33 -164 40 -164 52 0 13 26 10 290
-36 260 -44 499 -61 669 -47 352 31 557 81 786 190 98 47 140 56 95 19z
m-3660 -9 c0 -6 -14 -28 -30 -49 -17 -21 -36 -53 -42 -70 l-11 -32 -20 46
c-11 25 -25 46 -31 46 -19 0 -63 -51 -80 -92 -8 -21 -21 -38 -29 -38 -25 0
-64 -39 -70 -70 -6 -30 -27 -43 -27 -17 0 25 -37 48 -87 55 -44 7 -48 10 -51
37 -4 35 -16 45 -54 45 -32 0 -34 7 -13 37 24 34 87 52 290 82 216 33 255 36
255 20z m210 -65 c30 -21 57 -39 59 -41 10 -8 -107 -116 -177 -164 -82 -57
-213 -112 -319 -134 -100 -21 -130 -19 -77 4 50 23 91 71 100 116 7 37 13 42
32 23 20 -20 104 -13 157 15 76 38 123 91 142 159 9 32 19 58 22 58 4 0 31
-16 61 -36z m7204 6 c50 -8 78 -18 103 -38 65 -51 103 -90 103 -105 0 -29
-246 -111 -315 -105 l-37 3 31 42 c40 55 46 82 31 142 -11 47 -8 71 8 71 4 0
38 -5 76 -10z m-1067 -31 c39 -8 59 -18 78 -40 28 -35 26 -50 -8 -42 -34 8
-187 83 -187 92 0 8 36 5 117 -10z m847 -65 c9 -24 7 -28 -9 -14 -17 14 -20
30 -6 30 5 0 12 -7 15 -16z m-316 -79 c9 -3 40 -26 67 -52 42 -38 46 -44 25
-40 -141 30 -340 81 -340 88 0 5 36 9 80 8 62 -1 87 3 112 18 31 18 33 18 36
2 2 -10 11 -21 20 -24z m-6434 29 c29 -11 17 -35 -51 -106 -113 -117 -343
-245 -530 -295 -87 -24 -117 -27 -268 -27 l-170 -1 -100 39 c-137 53 -131 48
-103 80 21 25 26 26 53 16 104 -41 526 -24 700 28 81 24 196 94 348 212 78 60
91 65 121 54z m6719 -101 c22 -13 -13 -23 -79 -23 -78 0 -91 12 -31 29 29 8
90 5 110 -6z m-7740 -52 c26 -24 46 -31 97 -36 87 -8 110 -14 110 -25 0 -6
-51 -10 -128 -10 -99 0 -132 3 -150 16 -27 19 -28 38 -2 64 26 26 33 25 73 -9z
m4100 -220 c6 -6 -1 -23 -21 -49 -39 -49 -52 -82 -52 -134 0 -105 164 -161
475 -162 131 -1 170 2 217 18 66 21 129 71 148 116 18 43 8 110 -24 156 -14
21 -26 43 -26 48 0 5 20 6 45 3 92 -13 423 -38 830 -62 838 -50 854 -52 1302
-150 89 -19 246 -49 350 -65 103 -17 201 -33 217 -36 16 -4 57 -32 91 -64 72
-67 138 -103 228 -127 74 -19 199 -20 282 -3 53 11 66 18 110 66 l50 54 240
-1 c132 -1 253 -4 269 -8 l30 -6 -32 -36 c-26 -30 -32 -45 -32 -81 0 -99 71
-171 200 -204 90 -23 266 -16 330 13 75 33 139 128 140 204 0 44 6 46 157 41
l101 -3 -83 -84 c-81 -82 -182 -221 -295 -405 -31 -49 -61 -95 -67 -101 -7 -7
-28 5 -73 43 -34 29 -74 62 -88 74 -81 64 -522 238 -717 284 -265 62 -976 88
-1340 50 -49 -5 -205 -17 -345 -25 -140 -8 -322 -22 -403 -31 -81 -9 -159 -13
-172 -10 -24 6 -24 7 -6 25 28 28 62 128 68 198 7 79 -15 127 -97 208 l-60 60
-78 0 c-152 0 -198 -67 -217 -310 -10 -141 -3 -130 -113 -166 -160 -51 -253
-54 -482 -14 -170 29 -315 57 -338 66 -47 18 -247 59 -380 79 -237 35 -380 22
-628 -54 -61 -19 -124 -35 -140 -36 -69 -5 -69 -3 -9 62 94 101 120 185 90
283 -35 111 -151 199 -279 212 -41 4 -61 1 -95 -16 -106 -55 -152 -126 -200
-315 -34 -137 -58 -188 -95 -201 -20 -7 -72 -3 -184 13 -337 48 -524 53 -737
22 -75 -11 -141 -18 -146 -14 -5 3 -28 33 -51 67 -99 146 -180 193 -313 185
-61 -4 -82 -10 -124 -37 -65 -42 -95 -78 -115 -139 -9 -27 -28 -60 -42 -73
-26 -24 -27 -24 -217 -21 -106 2 -230 7 -277 11 l-85 7 55 16 c81 25 163 80
305 203 69 61 137 116 151 123 39 20 160 49 285 67 63 9 213 36 334 60 121 25
281 54 355 65 74 12 155 26 180 32 25 6 110 14 190 19 205 10 1441 2 1453 -10z
m462 -25 c22 -13 52 -26 66 -29 32 -8 129 -93 129 -113 0 -7 -17 -21 -37 -31
-32 -14 -72 -17 -238 -17 -249 -1 -325 15 -325 68 0 43 117 128 200 147 58 13
161 1 205 -25z m-1010 -190 c53 -28 85 -78 85 -131 0 -47 -12 -66 -107 -175
-69 -77 -77 -107 -46 -161 27 -46 76 -64 168 -63 68 0 102 8 225 49 134 44
154 48 267 53 68 2 172 -1 231 -7 104 -11 334 -61 371 -81 26 -13 387 -77 510
-89 187 -19 249 -15 367 24 227 76 251 103 264 301 8 123 21 168 52 188 26 16
82 -16 114 -64 40 -60 29 -117 -47 -237 -25 -40 -28 -113 -4 -149 34 -53 141
-78 225 -54 66 20 255 40 460 50 113 6 255 15 315 20 387 35 1105 14 1315 -37
123 -29 217 -94 233 -162 8 -33 -36 -121 -90 -181 -91 -101 -360 -259 -568
-333 -294 -105 -639 -102 -1605 14 -228 27 -476 58 -550 69 -149 21 -313 33
-704 51 -256 12 -359 10 -726 -11 -102 -6 -428 -12 -725 -14 -500 -3 -697 -8
-1275 -37 -118 -6 -435 -14 -705 -19 -515 -9 -704 -21 -1130 -69 -143 -17
-399 -42 -570 -56 -289 -25 -324 -26 -514 -15 -313 17 -427 38 -604 115 -318
138 -511 425 -359 534 17 11 84 40 149 62 184 63 183 63 183 99 0 18 -10 45
-21 62 -46 64 20 112 156 112 123 0 163 -29 201 -142 15 -46 30 -71 46 -79 31
-17 93 -16 214 2 283 42 1188 72 1755 59 l286 -7 47 43 c28 26 50 56 56 79 17
64 66 130 113 151 51 24 124 26 154 5 12 -9 48 -55 79 -103 64 -99 109 -150
141 -163 15 -5 47 -2 95 11 184 47 450 46 758 -2 264 -41 357 -18 408 99 11
27 35 108 53 182 29 124 35 138 73 179 22 24 50 48 61 53 27 11 71 2 120 -25z
m-2495 -65 c0 -13 -117 -104 -165 -130 -100 -52 -200 -46 -294 15 -55 37 -56
53 -4 54 12 0 84 12 160 26 76 14 172 29 213 34 41 4 78 8 83 9 4 0 7 -3 7 -8z
m6950 -81 c82 -13 100 -19 100 -31 0 -13 -174 -11 -205 3 -14 6 -25 14 -25 18
0 23 32 25 130 10z m-8351 -30 c167 -6 316 -7 433 0 190 10 255 6 303 -18 40
-20 135 -82 161 -104 11 -10 47 -29 79 -42 33 -13 61 -28 63 -34 2 -6 -131
-12 -360 -15 -480 -8 -789 -22 -920 -42 -59 -9 -128 -15 -153 -13 -45 3 -48 5
-60 43 -19 54 -111 141 -168 156 -222 60 -424 -8 -442 -151 -5 -45 -19 -54
-118 -79 -292 -76 -443 -143 -802 -356 -275 -163 -305 -179 -316 -168 -13 13
-12 175 0 228 14 58 82 116 173 148 40 14 160 46 267 72 244 58 348 97 362
133 16 40 1 92 -35 128 l-33 33 36 5 c54 8 339 54 476 76 107 17 157 19 460
15 187 -3 454 -9 594 -15z"/>
<path d="M9511 2000 c-76 -18 -129 -89 -117 -155 11 -58 76 -119 150 -140 53
-16 62 -16 85 -3 14 9 38 18 53 22 37 9 58 44 65 108 4 45 1 58 -19 87 -41 60
-145 99 -217 81z m90 -126 c38 -19 35 -48 -4 -52 -49 -6 -103 46 -64 61 22 9
37 7 68 -9z"/>
</g>
</svg>
